# Blender v2.63 (sub 0) OBJ File: ''
# www.blender.org
v 28.024622 -0.000004 6.028737
v 28.024622 7.635206 6.028742
v 28.024622 9.357388 6.028743
v 25.170401 9.357388 6.028743
v 25.170401 6.106868 6.028741
v 25.170401 -0.000004 6.028737
v 28.024622 9.357384 11.809827
v 25.170401 9.357384 11.809827
v 25.170401 -0.000008 11.809821
v 25.170401 6.106864 11.809825
v 28.024622 7.635202 11.809826
v 28.024622 -0.000008 11.809821
v 25.170401 0.000000 -0.053548
v 28.024622 0.000000 -0.053548
v 25.170401 6.106872 -0.053544
v 28.024622 7.635210 -0.053543
v -28.166569 -0.000020 31.936514
v -14.118771 -0.000020 31.936514
v -14.118771 7.635190 31.936520
v -28.166569 7.635190 30.513721
v -0.070972 -0.000020 31.936514
v -0.070972 7.635190 31.936520
v 13.976826 -0.000020 31.936514
v 13.976826 7.635190 31.936520
v 28.024622 -0.000020 31.936514
v 28.024622 7.635190 31.936520
v -14.118771 15.270398 32.692932
v -28.166569 15.270398 33.334202
v -0.070972 15.270399 31.041853
v 13.976826 15.270399 31.936523
v 29.571854 15.270399 31.164997
v -14.118771 22.905607 31.936529
v -28.166569 22.905607 31.936529
v -0.070972 22.905607 31.936529
v 13.976826 22.905607 32.813232
v 28.024622 22.905607 31.936529
v -14.118771 30.540815 31.936533
v -0.070972 30.540815 31.936533
v 13.976826 30.540815 31.936533
v 28.024622 27.745857 31.936531
v -15.580807 30.540823 21.650700
v -28.166569 30.540827 15.941502
v -4.038617 30.540823 21.650700
v 13.976826 34.524643 15.941504
v 28.024622 30.540827 15.941502
v -18.086414 30.540833 5.655669
v -28.166569 30.540836 -0.053528
v 13.976826 30.540836 -0.053528
v 28.024622 30.540836 -0.053528
v -14.118771 28.982697 -16.048559
v -28.166569 30.540846 -16.048559
v -0.070972 30.540846 -16.048559
v 13.976826 32.268791 -16.048557
v 28.024622 30.540846 -16.048559
v -14.118771 30.540857 -32.043591
v -25.557236 30.540857 -32.043591
v -0.070972 30.540857 -32.043591
v 13.976826 30.540857 -32.043591
v 28.024622 32.200203 -32.043591
v -17.292543 22.905649 -31.683990
v -28.166569 22.905649 -32.043594
v -0.070972 22.905649 -32.043594
v 13.976826 20.502016 -33.713696
v 28.024622 22.905649 -32.043594
v -14.118771 15.270439 -32.043598
v -28.166569 15.270439 -32.043598
v -2.455316 15.270439 -31.316618
v 11.592482 15.270439 -32.043598
v 26.713678 15.270439 -32.043598
v -14.118771 7.635231 -32.043606
v -29.076796 7.635232 -34.208763
v -0.070972 7.635231 -32.043606
v 13.976826 7.635231 -32.043606
v 28.024622 7.635231 -32.043606
v -14.118771 0.000021 -32.043610
v -28.166569 0.000021 -32.043610
v -0.070972 0.000021 -32.043610
v 13.976826 0.000021 -32.043610
v 28.024622 0.000021 -32.043610
v -25.312344 0.000018 -28.793749
v -25.312347 0.000010 -16.048578
v -28.166569 0.000010 -16.048578
v -14.118771 0.000018 -28.793749
v -12.691658 0.000018 -28.793749
v -0.070972 0.000018 -28.793749
v 12.549715 0.000018 -28.793749
v 13.976826 0.000018 -28.793749
v 25.170401 0.000018 -28.793749
v 28.024622 0.000010 -16.048578
v 25.170401 0.000010 -16.048578
v -25.312344 0.000009 -14.423649
v -25.312344 0.000000 -0.053548
v -28.166569 0.000000 -0.053548
v 25.170401 0.000009 -14.423649
v -25.312344 -0.000009 14.316553
v -25.312347 -0.000010 15.941483
v -28.166569 -0.000010 15.941483
v 28.024622 -0.000010 15.941483
v 25.170401 -0.000010 15.941483
v 25.170401 -0.000009 14.316553
v -25.312344 -0.000018 28.686655
v -14.118771 -0.000018 28.686655
v -12.691658 -0.000018 28.686655
v -0.070972 -0.000018 28.686655
v 12.549715 -0.000018 28.686655
v 13.976826 -0.000018 28.686655
v 25.170401 -0.000018 28.686655
v 28.024622 7.635221 -16.048573
v 28.024622 7.635200 15.941487
v 23.815416 15.270430 -16.048569
v 28.024622 15.270419 -0.053538
v 28.789452 15.270409 15.941492
v 28.024622 22.905638 -16.048563
v 28.024622 22.905628 -0.053533
v 28.024622 22.905619 15.941497
v -28.166569 7.635221 -16.048573
v -28.166569 7.635210 -0.053543
v -26.882631 7.635200 15.941487
v -29.322330 13.905167 -16.048569
v -27.037348 15.270417 3.384375
v -28.166569 15.270409 15.941492
v -28.166569 22.905638 -16.048563
v -28.166569 22.905628 -0.053533
v -28.166569 22.905619 15.941497
v 25.170401 6.106891 -28.793745
v 12.549715 6.106891 -28.793745
v 25.170401 6.106881 -14.423645
v 25.170401 6.106863 14.316557
v 25.170401 6.106854 28.686659
v 12.549715 6.106854 28.686659
v -0.070972 6.106854 28.686659
v -12.691658 6.106854 28.686659
v -25.312344 6.106854 28.686659
v -25.312344 6.106863 14.316557
v -25.312344 6.106872 -0.053544
v -25.312344 6.106881 -14.423645
v -25.312344 6.106891 -28.793745
v -12.691658 6.106891 -28.793745
v -0.070972 6.106891 -28.793745
v 25.170401 12.966441 -28.793741
v 10.165371 12.966441 -28.793741
v 22.786057 12.966433 -14.423640
v 25.170401 12.966423 -0.053540
v 25.170401 12.966413 14.316562
v 25.170401 12.966405 28.686663
v 12.549715 12.966405 28.686663
v -0.070972 12.966405 28.686663
v -12.691658 12.966405 28.686663
v -25.312344 12.966405 28.686663
v -25.312344 12.966413 14.316562
v -25.312344 12.966423 -0.053540
v -25.312344 12.966433 -14.423640
v -25.312344 12.966441 -28.793741
v -12.691658 12.966441 -28.793741
v -0.070972 12.966441 -28.793741
v 25.170401 19.825993 -28.793736
v 12.549715 19.825993 -28.793736
v 25.170401 19.825983 -14.423636
v 25.170401 19.825974 -0.053535
v 25.170401 19.825964 14.316566
v 25.170401 19.825954 28.686668
v 12.549715 19.825954 28.686668
v -0.070972 19.825954 28.686668
v -12.691658 19.825954 28.686668
v -25.312344 19.825954 28.686668
v -25.312344 19.825964 14.316566
v -25.312344 19.825974 -0.053535
v -25.312344 19.825983 -14.423636
v -25.312344 19.825993 -28.793736
v -12.691658 19.825993 -28.793736
v -0.070972 19.825993 -28.793736
v 25.170401 26.685545 -28.793732
v 12.549715 26.685545 -28.793732
v 25.170401 26.685535 -14.423632
v 25.170401 26.685526 -0.053531
v 25.170401 26.685516 14.316570
v 25.170401 26.685507 28.686672
v 12.549715 26.685507 28.686672
v -0.070972 26.685507 28.686672
v -12.691658 26.685507 28.686672
v -25.312344 26.685507 28.686672
v -25.312344 26.685516 14.316570
v -25.312344 26.685526 -0.053531
v -25.312344 26.685535 -14.423632
v -25.312344 26.685545 -28.793732
v -12.691658 26.685545 -28.793732
v -0.070972 26.685545 -28.793732
v 12.549715 26.685535 -14.423632
v 12.549715 26.685526 -0.053531
v 12.549715 26.685516 14.316570
v -0.070972 26.685516 14.316570
v -12.691658 26.685516 14.316570
v -12.691658 26.685526 -0.053531
v -12.691658 26.685535 -14.423632
v -0.070972 26.685535 -14.423632
v -0.070972 26.685526 -0.053531
v -7.504826 48.627197 17.422417
v -14.893884 48.627197 17.422417
v -14.893884 48.627201 9.883974
v -24.654619 30.540815 31.936533
v -28.166569 28.632013 31.936533
v -28.166569 30.540819 27.937775
v -8.328362 48.627197 16.699642
v -14.070348 48.627197 16.699642
v -8.328362 48.627201 10.606750
v -14.070348 48.627201 10.606750
v -8.328362 35.351875 16.699635
v -14.070348 35.351875 16.699635
v -8.328362 35.351879 10.606742
v -14.070348 35.351879 10.606742
v -4.038617 30.540831 9.654427
v -7.550566 30.540833 5.655669
v 0.465244 30.540834 4.228370
v -3.046706 30.540836 0.229612
v -4.905169 35.062428 6.712745
v -6.638274 44.105614 8.826898
v -7.504826 48.627201 11.768585
v -9.352091 48.627201 9.883974
v -7.710710 48.627201 10.064668
vn 0.000000 -0.000001 1.000000
vn 0.000000 -1.000000 -0.000001
vn 0.000000 0.000001 -1.000000
vn -1.000000 0.000000 0.000000
vn -0.577349 -0.577349 0.577349
vn -0.707083 0.000000 0.707083
vn -0.707083 -0.707083 0.000000
vn 0.577349 -0.577349 0.577349
vn 0.707083 -0.707083 0.000000
vn 0.707083 0.000000 0.707083
vn 0.998169 0.038453 -0.046236
vn -0.013215 -0.017579 0.999756
vn -0.795740 -0.027345 0.604968
vn -0.584094 -0.537065 0.608570
vn 0.000000 -0.707083 0.707083
vn -0.010804 0.049043 0.998718
vn 0.000000 0.000000 1.000000
vn 0.677358 -0.038942 0.734611
vn 0.036348 -0.038118 0.998596
vn -0.640797 -0.075655 0.763939
vn 0.006867 -0.016663 0.999817
vn -0.002441 -0.038881 0.999237
vn 0.786645 0.000000 0.617389
vn 0.007721 0.055940 0.998383
vn -0.728019 0.061953 0.682730
vn -0.000458 -0.032197 0.999451
vn -0.007965 -0.006165 0.999939
vn 0.692953 0.025910 0.720481
vn -0.701743 0.708640 0.073214
vn -0.679983 0.287118 0.674642
vn -0.097140 0.709616 0.697806
vn -0.045595 0.671468 0.739616
vn 0.000000 0.707083 0.707083
vn 0.066897 0.675985 0.733848
vn 0.641194 0.465835 0.609760
vn 0.137852 0.953825 0.266823
vn -0.243965 0.918149 0.312174
vn 0.044496 0.998718 0.023469
vn 0.775872 0.627186 0.067904
vn -0.228614 0.942564 -0.243446
vn -0.707083 0.707083 0.000000
vn -0.692373 0.721213 -0.020356
vn 0.000000 1.000000 0.000001
vn 0.730125 0.681753 -0.045625
vn -0.015625 0.996216 -0.085391
vn -0.000671 0.999969 0.005249
vn -0.669820 0.742393 -0.011109
vn 0.750603 0.658589 0.053224
vn -0.027467 0.999207 0.028504
vn -0.400403 0.669362 -0.625751
vn -0.007385 0.728507 -0.684957
vn -0.085086 0.996338 -0.004456
vn -0.018189 0.715995 -0.697836
vn -0.054933 0.703940 -0.708090
vn 0.561296 0.602985 -0.566820
vn -0.000671 -0.000336 -0.999969
vn -0.706168 0.083285 -0.703085
vn -0.026337 -0.028657 -0.999237
vn -0.021882 -0.056734 -0.998138
vn 0.762535 -0.078799 -0.642109
vn -0.702261 0.105960 -0.703970
vn 0.015625 0.008698 -0.999817
vn 0.003357 -0.014405 -0.999878
vn -0.044862 -0.110477 -0.992859
vn 0.723899 0.003143 -0.689871
vn 0.032594 0.008759 -0.999420
vn -0.642872 0.000000 -0.765923
vn -0.010620 0.035371 -0.999298
vn 0.000000 0.000000 -1.000000
vn 0.722617 0.061586 -0.688467
vn -0.545274 -0.660390 -0.516221
vn 0.000000 -0.707083 -0.707083
vn 0.577349 -0.577349 -0.577349
vn 0.973693 0.225898 0.029359
vn 0.998535 -0.051119 -0.016724
vn 0.707083 0.000000 -0.707083
vn 0.999664 -0.008820 -0.023896
vn 0.993957 -0.044404 -0.100070
vn 0.999268 -0.004639 -0.037233
vn 0.900021 -0.330821 0.283639
vn 0.876949 -0.371654 -0.304636
vn 0.975677 -0.214850 -0.043428
vn 0.999908 0.007080 -0.008545
vn 0.998291 0.057375 -0.008942
vn -0.996887 -0.078158 -0.008454
vn -0.997742 0.046297 0.048585
vn -0.747063 -0.664724 -0.001312
vn -0.999207 0.024049 -0.031495
vn -0.999298 -0.030366 -0.020722
vn -0.998657 -0.023804 0.045503
vn -0.995727 -0.070070 -0.059664
vn -0.998413 0.054781 -0.010895
vn -0.998840 -0.037996 0.029115
vn -0.999786 -0.012818 -0.014618
vn -0.989257 -0.143132 0.028687
vn -0.726279 -0.035646 0.686422
vn -0.301492 -0.904508 0.301492
vn 1.000000 -0.000000 0.000002
vn 1.000000 -0.000001 -0.000000
vn 1.000000 0.000000 -0.000000
vn 1.000000 0.000000 -0.000002
vn -0.741997 0.036500 0.669362
vn -0.998291 -0.024445 0.052675
vn -0.904508 -0.301492 0.301492
vn -0.989257 0.143132 -0.028687
vn -0.999237 0.024476 0.029481
vn -0.999969 0.000000 0.000000
vn 0.000000 0.227645 0.973744
vn -0.011567 0.987762 -0.155400
vn 0.590625 0.572222 -0.568926
vn 0.134312 0.986084 -0.097842
vn -0.203894 0.760735 -0.616169
vn 0.580401 0.804804 0.123997
vn -0.985279 0.073504 0.154343
vn -0.984776 0.173829 0.000000
vn 0.000000 1.000000 -0.000000
vn 0.000001 1.000000 0.000001
vn 0.678945 0.293619 -0.672872
vn 0.495224 0.717704 -0.489486
vn 0.641499 0.766717 -0.024751
vn 0.022919 0.779504 -0.625935
vn 0.523392 0.684805 0.507004
vn -0.528733 0.681051 -0.506516
vn 0.301492 0.904508 0.301492
vn -0.301492 0.904508 0.301492
vn -0.301492 0.904508 -0.301492
s off
f 4//1 2//1 3//1
f 1//1 5//1 6//1
f 2//1 4//1 5//1
f 5//1 1//1 2//1
f 8//2 4//2 7//2
f 7//2 4//2 3//2
f 10//3 12//3 9//3
f 8//3 11//3 10//3
f 12//3 10//3 11//3
f 11//3 8//3 7//3
f 13//2 1//2 6//2
f 1//2 13//2 14//2
s 1
f 15//4 6//5 5//6
f 6//5 15//4 13//7
f 1//8 14//9 2//10
f 2//10 14//9 16//11
f 19//12 20//13 17//14
f 19//12 17//14 18//15
f 22//16 19//12 18//15
f 22//16 18//15 21//15
f 24//17 22//16 21//15
f 24//17 21//15 23//15
f 26//18 24//17 23//15
f 26//18 23//15 25//8
f 27//19 28//20 20//13
f 27//19 20//13 19//12
f 29//21 27//19 19//12
f 29//21 19//12 22//16
f 30//22 29//21 22//16
f 30//22 22//16 24//17
f 30//22 26//18 31//23
f 26//18 30//22 24//17
f 32//24 33//25 28//20
f 32//24 28//20 27//19
f 34//26 32//24 27//19
f 34//26 27//19 29//21
f 35//27 34//26 29//21
f 35//27 29//21 30//22
f 36//28 35//27 30//22
f 30//22 31//23 36//28
f 202//29 201//30 200//31
f 38//32 37//33 32//24
f 38//32 32//24 34//26
f 39//34 38//32 34//26
f 39//34 34//26 35//27
f 40//35 39//34 35//27
f 40//35 35//27 36//28
f 38//32 43//36 37//33
f 37//33 43//36 41//37
f 39//34 44//38 38//32
f 38//32 44//38 43//36
f 40//35 45//39 39//34
f 39//34 45//39 44//38
f 41//37 46//40 42//41
f 47//42 42//41 46//40
s off
f 209//43 208//43 207//43
f 208//43 209//43 210//43
s 1
f 45//39 49//44 44//38
f 44//38 49//44 48//45
f 46//40 50//46 47//42
f 47//42 50//46 51//47
f 49//44 54//48 48//45
f 48//45 54//48 53//49
f 50//46 56//50 51//47
f 56//50 50//46 55//51
f 52//52 57//53 50//46
f 50//46 57//53 55//51
f 53//49 58//54 52//52
f 52//52 58//54 57//53
f 54//48 59//55 53//49
f 53//49 59//55 58//54
f 60//56 61//57 56//50
f 56//50 55//51 60//56
f 62//58 60//56 55//51
f 62//58 55//51 57//53
f 62//58 58//54 63//59
f 58//54 62//58 57//53
f 64//60 63//59 58//54
f 64//60 58//54 59//55
f 66//61 60//56 65//62
f 60//56 66//61 61//57
f 62//58 65//62 60//56
f 65//62 62//58 67//63
f 68//64 67//63 62//58
f 62//58 63//59 68//64
f 69//65 68//64 63//59
f 69//65 63//59 64//60
f 70//66 71//67 66//61
f 70//66 66//61 65//62
f 70//66 67//63 72//68
f 67//63 70//66 65//62
f 72//68 68//64 73//69
f 68//64 72//68 67//63
f 73//69 69//65 74//70
f 69//65 73//69 68//64
f 76//71 70//66 75//72
f 70//66 76//71 71//67
f 77//72 75//72 70//66
f 77//72 70//66 72//68
f 78//72 77//72 72//68
f 78//72 72//68 73//69
f 79//73 78//72 73//69
f 79//73 73//69 74//70
s off
f 75//2 80//2 76//2
f 82//2 76//2 80//2
f 82//2 80//2 81//2
f 80//2 75//2 83//2
f 83//2 75//2 84//2
f 75//2 77//2 84//2
f 85//2 84//2 77//2
f 86//2 85//2 77//2
f 78//2 87//2 86//2
f 86//2 77//2 78//2
f 89//2 88//2 79//2
f 88//2 87//2 78//2
f 88//2 89//2 90//2
f 88//2 78//2 79//2
f 93//2 91//2 92//2
f 93//2 82//2 91//2
f 91//2 82//2 81//2
f 13//2 94//2 14//2
f 14//2 94//2 89//2
f 94//2 90//2 89//2
f 97//2 95//2 96//2
f 93//2 95//2 97//2
f 95//2 93//2 92//2
f 98//2 99//2 100//2
f 12//2 100//2 9//2
f 100//2 12//2 98//2
f 17//2 97//2 101//2
f 97//2 96//2 101//2
f 18//2 17//2 101//2
f 18//2 101//2 102//2
f 21//2 18//2 103//2
f 21//2 103//2 104//2
f 103//2 18//2 102//2
f 21//2 105//2 23//2
f 105//2 21//2 104//2
f 23//2 105//2 106//2
f 23//2 107//2 25//2
f 98//2 25//2 107//2
f 107//2 99//2 98//2
f 107//2 23//2 106//2
s 1
f 74//70 108//74 89//9
f 89//9 79//73 74//70
f 108//74 16//11 14//9
f 14//9 89//9 108//74
f 109//75 98//9 12//73
f 109//75 12//73 11//76
f 109//75 26//18 25//8
f 25//8 98//9 109//75
f 69//65 110//77 108//74
f 108//74 74//70 69//65
f 110//77 111//78 16//11
f 16//11 108//74 110//77
f 112//79 3//80 111//78
f 2//10 16//11 3//80
f 109//75 7//81 112//79
f 7//81 109//75 11//76
f 3//80 16//11 111//78
f 3//80 112//79 7//81
f 31//23 109//75 112//79
f 109//75 31//23 26//18
f 64//60 113//82 110//77
f 110//77 69//65 64//60
f 113//82 114//83 111//78
f 111//78 110//77 113//82
f 114//83 115//84 112//79
f 112//79 111//78 114//83
f 115//84 36//28 31//23
f 31//23 112//79 115//84
f 64//60 54//48 113//82
f 54//48 64//60 59//55
f 54//48 49//44 114//83
f 114//83 113//82 54//48
f 49//44 45//39 115//84
f 115//84 114//83 49//44
f 40//35 115//84 45//39
f 115//84 40//35 36//28
f 116//85 76//71 82//7
f 76//71 116//85 71//67
f 93//7 116//85 82//7
f 116//85 93//7 117//86
f 97//87 117//86 93//7
f 117//86 97//87 118//88
f 20//13 97//87 17//14
f 97//87 20//13 118//88
f 116//85 66//61 71//67
f 66//61 116//85 119//89
f 117//86 119//89 116//85
f 119//89 117//86 120//90
f 118//88 120//90 117//86
f 120//90 118//88 121//91
f 20//13 121//91 118//88
f 121//91 20//13 28//20
f 122//92 66//61 119//89
f 66//61 122//92 61//57
f 123//93 119//89 120//90
f 119//89 123//93 122//92
f 124//94 120//90 121//91
f 124//94 123//93 120//90
f 33//25 121//91 28//20
f 121//91 33//25 124//94
f 51//47 61//57 122//92
f 61//57 51//47 56//50
f 47//42 122//92 123//93
f 122//92 47//42 51//47
f 42//41 123//93 124//94
f 123//93 42//41 47//42
s off
f 125//1 87//1 88//1
f 87//1 125//1 126//1
f 126//1 86//1 87//1
s 1
f 127//95 90//7 94//7
f 127//95 125//96 90//7
f 90//7 125//96 88//97
f 15//4 127//95 13//7
f 13//7 127//95 94//7
s off
f 100//4 128//4 10//4
f 100//4 10//4 9//4
f 129//4 99//4 107//4
f 99//4 129//4 128//4
f 99//4 128//4 100//4
f 130//3 106//3 105//3
f 106//3 129//3 107//3
f 106//3 130//3 129//3
f 131//3 130//3 104//3
f 105//3 104//3 130//3
f 132//3 131//3 103//3
f 104//3 103//3 131//3
f 133//3 102//3 101//3
f 102//3 132//3 103//3
f 102//3 133//3 132//3
f 134//98 96//98 95//98
f 96//99 134//99 133//99
f 133//100 101//100 96//100
f 95//100 92//100 134//100
f 134//100 92//100 135//100
f 92//100 91//100 135//100
f 135//100 91//100 136//100
f 137//99 136//99 81//99
f 81//100 80//100 137//100
f 136//101 91//101 81//101
f 137//1 83//1 138//1
f 83//1 137//1 80//1
f 138//1 83//1 84//1
f 138//1 85//1 139//1
f 85//1 138//1 84//1
f 139//1 86//1 126//1
f 86//1 139//1 85//1
f 140//1 141//1 126//1
f 140//1 126//1 125//1
s 1
f 142//4 125//96 127//95
f 125//96 142//4 140//102
f 143//103 127//95 15//4
f 127//95 143//103 142//4
s off
f 144//4 4//4 8//4
f 128//4 144//4 8//4
f 128//4 8//4 10//4
s 1
f 4//104 15//4 5//6
f 15//4 4//104 143//103
f 4//104 144//4 143//103
s off
f 145//4 128//4 129//4
f 128//4 145//4 144//4
f 129//3 130//3 146//3
f 129//3 146//3 145//3
f 130//3 131//3 147//3
f 130//3 147//3 146//3
f 131//3 132//3 148//3
f 131//3 148//3 147//3
f 132//3 133//3 149//3
f 132//3 149//3 148//3
f 150//100 149//100 133//100
f 133//100 134//100 150//100
f 151//100 150//100 134//100
f 134//100 135//100 151//100
f 152//100 151//100 135//100
f 135//100 136//100 152//100
f 153//100 152//100 136//100
f 136//100 137//100 153//100
f 154//1 153//1 137//1
f 154//1 137//1 138//1
f 155//1 154//1 138//1
f 155//1 138//1 139//1
f 155//1 139//1 141//1
f 141//1 139//1 126//1
f 157//1 140//1 156//1
f 140//1 157//1 141//1
s 1
f 158//105 140//102 142//4
f 140//102 158//105 156//6
f 159//106 142//4 143//103
f 142//4 159//106 158//105
f 160//107 143//103 144//4
f 143//103 160//107 159//106
s off
f 161//4 144//4 145//4
f 144//4 161//4 160//4
f 162//3 145//3 146//3
f 145//3 162//3 161//3
f 146//3 147//3 163//3
f 146//3 163//3 162//3
f 147//3 148//3 164//3
f 147//3 164//3 163//3
f 148//3 149//3 165//3
f 148//3 165//3 164//3
f 166//100 165//100 149//100
f 149//100 150//100 166//100
f 167//100 166//100 150//100
f 150//100 151//100 167//100
f 168//100 167//100 151//100
f 151//100 152//100 168//100
f 169//100 168//100 152//100
f 152//100 153//100 169//100
f 170//1 169//1 153//1
f 170//1 153//1 154//1
f 171//1 170//1 154//1
f 171//1 154//1 155//1
f 171//1 141//1 157//1
f 141//1 171//1 155//1
f 157//1 172//1 173//1
f 172//1 157//1 156//1
s 1
f 174//7 156//6 158//105
f 156//6 174//7 172//5
f 175//7 158//105 159//106
f 158//105 175//7 174//7
f 176//7 159//106 160//107
f 159//106 176//7 175//7
s off
f 177//4 160//4 161//4
f 160//4 177//4 176//4
f 178//3 161//3 162//3
f 161//3 178//3 177//3
f 162//3 163//3 179//3
f 162//3 179//3 178//3
f 180//3 163//3 164//3
f 163//3 180//3 179//3
f 181//3 164//3 165//3
f 164//3 181//3 180//3
f 182//100 181//100 165//100
f 165//100 166//100 182//100
f 183//100 182//100 166//100
f 166//100 167//100 183//100
f 184//100 183//100 167//100
f 167//100 168//100 184//100
f 185//100 184//100 168//100
f 168//100 169//100 185//100
f 169//1 186//1 185//1
f 186//1 169//1 170//1
f 170//1 187//1 186//1
f 187//1 170//1 171//1
f 173//1 187//1 171//1
f 173//1 171//1 157//1
f 188//2 173//2 174//2
f 174//2 173//2 172//2
f 189//2 188//2 175//2
f 175//2 188//2 174//2
f 190//2 189//2 176//2
f 176//2 189//2 175//2
f 178//2 190//2 177//2
f 177//2 190//2 176//2
f 179//2 191//2 178//2
f 178//2 191//2 190//2
f 180//2 192//2 179//2
f 179//2 192//2 191//2
f 181//2 182//2 180//2
f 180//2 182//2 192//2
f 182//2 183//2 192//2
f 192//2 183//2 193//2
f 183//2 184//2 193//2
f 193//2 184//2 194//2
f 184//2 185//2 194//2
f 194//2 185//2 186//2
f 194//2 186//2 195//2
f 195//2 186//2 187//2
f 195//2 187//2 188//2
f 188//2 187//2 173//2
f 195//2 189//2 196//2
f 189//2 195//2 188//2
f 196//2 190//2 191//2
f 190//2 196//2 189//2
f 192//2 193//2 191//2
f 191//2 193//2 196//2
f 193//2 194//2 196//2
f 196//2 194//2 195//2
f 198//108 41//108 197//108
f 41//108 43//108 197//108
s 1
f 214//109 215//110 213//111
f 215//110 214//109 212//112
f 213//111 215//110 211//113
s off
f 198//114 46//114 41//114
f 46//115 198//115 199//115
s 1
f 33//25 202//29 124//94
f 202//29 33//25 201//30
f 124//94 202//29 42//41
f 201//30 33//25 200//31
f 200//31 32//24 37//33
f 32//24 200//31 33//25
f 42//41 202//29 41//37
f 41//37 200//31 37//33
f 200//31 41//37 202//29
s off
f 198//116 197//116 203//116
f 198//116 203//116 204//116
f 198//43 206//43 199//43
f 206//117 198//117 204//117
f 208//3 204//3 207//3
f 207//3 204//3 203//3
f 205//4 209//4 203//4
f 207//4 203//4 209//4
f 206//1 210//1 205//1
f 205//1 210//1 209//1
f 208//100 206//100 204//100
f 206//100 208//100 210//100
s 1
f 48//45 52//52 214//109
f 52//52 48//45 53//49
f 48//45 214//109 213//111
f 214//109 46//40 212//112
f 50//46 214//109 52//52
f 214//109 50//46 46//40
f 216//118 219//119 217//120
f 219//119 216//118 218//121
f 44//38 211//113 43//36
f 213//111 44//38 48//45
f 211//113 44//38 213//111
f 216//118 43//36 215//110
f 215//110 43//36 211//113
f 43//36 216//118 197//122
f 197//122 216//118 217//120
f 46//40 199//123 216//118
f 215//110 46//40 216//118
f 46//40 215//110 212//112
f 216//118 199//123 218//121
f 206//124 205//125 218//121
f 218//121 199//123 206//124
f 219//119 218//121 205//125
f 203//126 217//120 205//125
f 217//120 203//126 197//122
f 217//120 219//119 205//125
